PathFileType	4	(X/Y/Z)	/Users/itak/Documents/Research/Walk-IL/dataset/trc/00374_00011.trc
DataRate	CameraRate	NumFrames	NumMarkers	Units	OrigDataRate	OrigDataStartFrame	OrigNumFrames
100.000000	100.000000	4	54	mm	100.000000	133	532
Frame#	Time	RPSI			LPSI			L3			STRN			T10			C7			CLAV			RBAK			LBAK			LSHO			LUPA			LAEL			LAOL			LWTS			LWPS			LFRA			LIFD			LHPS			LHTS			RSHO			RUPA			RAEL			RAOL			RWTS			RWPS			RFRA			RIFD			RHTS			RHPS			RBHD			LFHD			RFHD			LBHD			LHIP			RHIP			RASI			LASI			LKNE			LTHI			LANK			LTIP			LTOE			LMT1			LMT5			LHEE			RKNE			RTHI			RANK			RTIP			RTOE			RMT1			RMT5			RHEE			*53			
		X1	Y1	Z1	X2	Y2	Z2	X3	Y3	Z3	X4	Y4	Z4	X5	Y5	Z5	X6	Y6	Z6	X7	Y7	Z7	X8	Y8	Z8	X9	Y9	Z9	X10	Y10	Z10	X11	Y11	Z11	X12	Y12	Z12	X13	Y13	Z13	X14	Y14	Z14	X15	Y15	Z15	X16	Y16	Z16	X17	Y17	Z17	X18	Y18	Z18	X19	Y19	Z19	X20	Y20	Z20	X21	Y21	Z21	X22	Y22	Z22	X23	Y23	Z23	X24	Y24	Z24	X25	Y25	Z25	X26	Y26	Z26	X27	Y27	Z27	X28	Y28	Z28	X29	Y29	Z29	X30	Y30	Z30	X31	Y31	Z31	X32	Y32	Z32	X33	Y33	Z33	X34	Y34	Z34	X35	Y35	Z35	X36	Y36	Z36	X37	Y37	Z37	X38	Y38	Z38	X39	Y39	Z39	X40	Y40	Z40	X41	Y41	Z41	X42	Y42	Z42	X43	Y43	Z43	X44	Y44	Z44	X45	Y45	Z45	X46	Y46	Z46	X47	Y47	Z47	X48	Y48	Z48	X49	Y49	Z49	X50	Y50	Z50	X51	Y51	Z51	X52	Y52	Z52	X53	Y53	Z53	X54	Y54	Z54	

134	1.33	-1274.765502929688	986.9932250976562	-24.88966941833496	-1273.572265625	988.1384887695312	-153.9151153564453	-1270.972778320312	1038.917358398438	-86.160400390625	-1050.665893554688	1230.342651367188	-88.07232666015625	-1284.7958984375	1154.740356445312	-97.52312469482422	-1254.067138671875	1405.58837890625	-113.3920059204102	-1096.133666992188	1356.287841796875	-95.60244750976562	-1297.732666015625	1264.106689453125	-49.66388702392578	-1257.456420898438	1367.28515625	-215.1522674560547	-1169.38427734375	1388.598754882812	-265.5992431640625	-1175.601684570312	1265.568359375	-331.2921142578125	-1141.803344726562	1063.26611328125	-339.8310241699219	-1208.368041992188	1045.39501953125	-290.2726440429688	-1038.369140625	826.251220703125	-283.2837524414062	-1069.566040039062	813.9586181640625	-344.1006774902344	-1118.904541015625	960.581787109375	-344.1083679199219	-1008.157531738281	676.7224731445312	-284.2152404785156	-1070.282348632812	743.2828979492188	-337.9809265136719	-1021.679321289062	747.8538208007812	-296.5071411132812	-1210.12255859375	1396.899291992188	54.18976974487305	-1223.699340820312	1331.275390625	116.5571899414062	-1206.169555664062	1064.234130859375	153.6476745605469	-1236.723022460938	1055.325439453125	63.94719696044922	-1082.08984375	840.52001953125	118.0935974121094	-1120.959716796875	825.703857421875	183.2310333251953	-1178.108276367188	998.5546264648438	165.5431518554688	-1062.475463867188	669.13623046875	129.2356109619141	-1051.90234375	740.5316162109375	136.7509307861328	-1103.061279296875	741.7947387695312	182.9021148681641	-1234.874755859375	1612.849853515625	-29.66748046875	-1052.828491210938	1637.827880859375	-129.2150421142578	-1073.97705078125	1637.430786132812	-30.12966156005859	-1231.036376953125	1606.346923828125	-174.57958984375	-1189.277954101562	929.125244140625	-257.8476257324219	-1197.75341796875	929.72705078125	85.09333038330078	-1090.794555664062	955.7548217773438	43.16893005371094	-1067.964477539062	951.8602294921875	-195.4806976318359	-1154.72216796875	466.9707946777344	-253.6838531494141	-1151.101440429688	606.8943481445312	-260.34716796875	-1239.599365234375	48.8752326965332	-254.9281768798828	-1199.5966796875	254.2161102294922	-264.5442810058594	-1036.36376953125	47.6400146484375	-188.5331726074219	-1105.705932617188	37.00362396240234	-149.7333831787109	-1113.31005859375	44.27884292602539	-263.9055480957031	-1274.98046875	43.91535568237305	-188.1605834960938	-1185.976440429688	463.4027404785156	71.91393280029297	-1135.7626953125	720.2966918945312	92.67690277099609	-1238.904174804688	51.33080673217773	48.08267593383789	-1180.337036132812	346.19384765625	61.0212516784668	-1045.740478515625	49.00042343139648	-8.600292205810547	-1102.919067382812	45.32671356201172	-47.45182418823242	-1135.799438476562	42.61080551147461	64.34788513183594	-1289.631713867188	50.67112350463867	1.099523782730103	nan	nan	nan	
135	1.34	-1273.9921875	987.2833862304688	-24.88446426391602	-1273.1650390625	988.5382690429688	-153.9573059082031	-1270.188598632812	1039.162353515625	-86.17431640625	-1049.822509765625	1230.4814453125	-88.61423492431641	-1283.975830078125	1154.828979492188	-97.57563781738281	-1253.31982421875	1405.68359375	-113.5866851806641	-1095.325439453125	1356.379638671875	-96.00056457519531	-1296.874267578125	1264.219970703125	-49.72682571411133	-1256.8193359375	1367.367065429688	-215.3061828613281	-1168.866333007812	1388.609619140625	-265.9064025878906	-1175.134887695312	1265.573852539062	-331.5202026367188	-1141.382934570312	1063.269409179688	-340.0322875976562	-1207.912719726562	1045.412841796875	-290.4103393554688	-1037.781860351562	826.2792358398438	-283.4978332519531	-1069.156982421875	813.9893798828125	-344.2975463867188	-1118.465209960938	960.5839233398438	-344.2974853515625	-1007.644409179688	676.6973876953125	-284.2595825195312	-1069.768920898438	743.261474609375	-338.0921936035156	-1021.147766113281	747.9193115234375	-296.6807250976562	-1209.093505859375	1397.059326171875	53.90019226074219	-1222.629760742188	1331.497924804688	116.3215866088867	-1205.318969726562	1064.486450195312	153.5007476806641	-1235.925903320312	1055.5498046875	63.8202018737793	-1081.592529296875	840.5117797851562	117.9556655883789	-1120.376708984375	825.857666015625	183.1926574707031	-1177.322143554688	998.7598876953125	165.4320831298828	-1062.197875976562	669.0614624023438	129.2894897460938	-1051.661376953125	740.4342651367188	136.7986907958984	-1102.65771484375	741.9622192382812	183.0112915039062	-1233.869384765625	1613.032470703125	-29.96434593200684	-1051.965942382812	1637.700073242188	-129.7592926025391	-1072.90087890625	1637.329467773438	-30.66324043273926	-1230.207397460938	1606.58154296875	-174.7940826416016	-1189.031982421875	929.3961791992188	-258.037353515625	-1196.905029296875	929.6871337890625	84.81207275390625	-1089.907348632812	955.591552734375	42.78866958618164	-1067.725830078125	951.886474609375	-195.9114990234375	-1153.255737304688	466.7720642089844	-253.4111022949219	-1150.338134765625	606.8820190429688	-260.3852844238281	-1239.57763671875	49.14277648925781	-254.4833526611328	-1198.682983398438	254.1709899902344	-264.0478210449219	-1036.372680664062	48.26351165771484	-188.6598052978516	-1105.554321289062	36.75186538696289	-149.6978607177734	-1113.445434570312	44.69640731811523	-263.7400207519531	-1275.0546875	43.94895935058594	-187.77880859375	-1185.731201171875	463.3131408691406	71.87014770507812	-1135.16064453125	720.1751708984375	92.35670471191406	-1238.933837890625	51.28946685791016	48.141357421875	-1180.224243164062	346.1881713867188	61.00244522094727	-1045.742553710938	49.08403396606445	-8.558182716369629	-1102.971801757812	45.40731811523438	-47.42216110229492	-1135.841918945312	42.59379577636719	64.34749603271484	-1289.69775390625	50.61892318725586	1.198081374168396	nan	nan	nan	
136	1.35	-1273.177856445312	987.59716796875	-24.91821670532227	-1272.743530273438	988.955810546875	-154.0342712402344	-1269.366577148438	1039.424926757812	-86.21817779541016	-1048.958129882812	1230.610229492188	-89.22868347167969	-1283.10888671875	1154.9130859375	-97.63788604736328	-1252.537963867188	1405.777587890625	-113.7982559204102	-1094.4814453125	1356.4814453125	-96.44338989257812	-1295.974731445312	1264.329223632812	-49.80093002319336	-1256.18798828125	1367.448364257812	-215.4896850585938	-1168.347534179688	1388.617309570312	-266.2498779296875	-1174.681030273438	1265.577026367188	-331.7812805175781	-1140.9638671875	1063.274291992188	-340.2619323730469	-1207.445434570312	1045.431884765625	-290.5679321289062	-1037.20068359375	826.3041381835938	-283.7348022460938	-1068.739379882812	814.0206298828125	-344.5299377441406	-1118.028686523438	960.586181640625	-344.5191040039062	-1007.112915039062	676.7056274414062	-284.3405456542969	-1069.251831054688	743.24560546875	-338.2361145019531	-1020.567932128906	747.9956665039062	-296.894287109375	-1207.992309570312	1397.218017578125	53.58153533935547	-1221.477294921875	1331.723999023438	116.0658340454102	-1204.406616210938	1064.734375	153.3417358398438	-1235.077392578125	1055.778564453125	63.68198776245117	-1081.061279296875	840.5099487304688	117.8248825073242	-1119.774658203125	826.0055541992188	183.1467132568359	-1176.4755859375	998.967529296875	165.3019866943359	-1061.899536132812	668.9813842773438	129.3467254638672	-1051.40234375	740.2997436523438	136.8416137695312	-1102.273803710938	742.1074829101562	183.1132354736328	-1232.800170898438	1613.223754882812	-30.30054664611816	-1051.039916992188	1637.535766601562	-130.3552398681641	-1071.754638671875	1637.201416015625	-31.24967384338379	-1229.350463867188	1606.832153320312	-175.0397338867188	-1188.776489257812	929.66845703125	-258.2693481445312	-1196.011596679688	929.6581420898438	84.47314453125	-1088.984252929688	955.4174194335938	42.33364868164062	-1067.474609375	951.9058227539062	-196.422607421875	-1151.643798828125	466.5643005371094	-253.1549987792969	-1149.490966796875	606.8638305664062	-260.4698181152344	-1239.61376953125	49.42070388793945	-254.0099945068359	-1197.696899414062	254.1124572753906	-263.5464782714844	-1036.397705078125	49.01589584350586	-188.872802734375	-1105.389404296875	36.54372024536133	-149.7104187011719	-1113.639526367188	45.19671630859375	-263.5970458984375	-1275.1181640625	43.9601936340332	-187.3334197998047	-1185.528076171875	463.2297668457031	71.79042816162109	-1134.534057617188	720.0606079101562	91.98255157470703	-1238.96826171875	51.24510955810547	48.20382690429688	-1180.140380859375	346.1953430175781	60.96964645385742	-1045.755249023438	49.17912673950195	-8.51358699798584	-1103.026977539062	45.48944473266602	-47.3902473449707	-1135.885009765625	42.57809066772461	64.35050964355469	-1289.76220703125	50.56211090087891	1.303654074668884	nan	nan	nan	
137	1.36	-1272.326293945312	987.9249267578125	-25.00331497192383	-1272.300170898438	989.3753662109375	-154.1557159423828	-1268.512084960938	1039.6953125	-86.30416870117188	-1048.0751953125	1230.720825195312	-89.91552734375	-1282.19921875	1154.988159179688	-97.71788024902344	-1251.7216796875	1405.866088867188	-114.0312042236328	-1093.600830078125	1356.582275390625	-96.93723297119141	-1295.035888671875	1264.429931640625	-49.89260864257812	-1255.560180664062	1367.523803710938	-215.7062683105469	-1167.826904296875	1388.619262695312	-266.6335754394531	-1174.24365234375	1265.572998046875	-332.08203125	-1140.545654296875	1063.275634765625	-340.5263671875	-1206.964599609375	1045.447265625	-290.7499389648438	-1036.62939453125	826.324462890625	-283.9986572265625	-1068.302856445312	814.0465087890625	-344.7975463867188	-1117.59375	960.5847778320312	-344.7775268554688	-1006.564025878906	676.7387084960938	-284.464111328125	-1068.727905273438	743.2333374023438	-338.4158325195312	-1019.942199707031	748.0750732421875	-297.1492919921875	-1206.817260742188	1397.367919921875	53.2312126159668	-1220.239868164062	1331.944946289062	115.7855377197266	-1203.425170898438	1064.9716796875	153.1731109619141	-1234.177001953125	1056.002563476562	63.53418731689453	-1080.489624023438	840.508056640625	117.7021713256836	-1119.14501953125	826.142333984375	183.0958709716797	-1175.56494140625	999.1708984375	165.1517639160156	-1061.577514648438	668.895263671875	129.4053497314453	-1051.104125976562	740.1307373046875	136.8752288818359	-1101.892822265625	742.2241821289062	183.2022247314453	-1231.66064453125	1613.421020507812	-30.67356300354004	-1050.046630859375	1637.328979492188	-131.0067901611328	-1070.535278320312	1637.041625976562	-31.89203643798828	-1228.466796875	1607.091552734375	-175.3235321044922	-1188.502807617188	929.9300537109375	-258.5509948730469	-1195.074829101562	929.6403198242188	84.07393646240234	-1088.026000976562	955.2338256835938	41.79974746704102	-1067.201293945312	951.9159545898438	-197.0181274414062	-1149.905883789062	466.3518676757812	-252.9325256347656	-1148.56201171875	606.8378295898438	-260.6111755371094	-1239.718139648438	49.69804382324219	-253.5158386230469	-1196.655517578125	254.0376586914062	-263.0573425292969	-1036.438232421875	49.88766098022461	-189.2012481689453	-1105.20654296875	36.39812088012695	-149.7954406738281	-1113.906005859375	45.77959060668945	-263.4989013671875	-1275.16162109375	43.94313812255859	-186.8220520019531	-1185.367797851562	463.1524658203125	71.67734527587891	-1133.880493164062	719.95263671875	91.54956817626953	-1239.007568359375	51.1989860534668	48.26818084716797	-1180.08251953125	346.2147827148438	60.91886138916016	-1045.7783203125	49.28302383422852	-8.467805862426758	-1103.081787109375	45.57085037231445	-47.35669708251953	-1135.927612304688	42.56509017944336	64.35581970214844	-1289.823364257812	50.50163650512695	1.414372086524963	nan	nan	nan	
